Coordinates
version=1
nRows=6
nColumns=34
inDegrees=yes

Units are S.I. units (second, meters, Newtons, ...)
Angles are in degrees.

endheader
time	pelvis_tilt	pelvis_list	pelvis_rotation	pelvis_tx	pelvis_ty	pelvis_tz	hip_flexion_r	hip_adduction_r	hip_rotation_r	knee_angle_r	ankle_angle_r	subtalar_angle_r	mtp_angle_r	hip_flexion_l	hip_adduction_l	hip_rotation_l	knee_angle_l	socket_flexion	socket_adduction	socket_rotation	socket_tx	socket_ty	socket_tz	pros_ankle_rx	pros_ankle_ry	pros_ankle_rz	pros_ankle_tx	pros_ankle_ty	pros_ankle_tz	foot_flex	lumbar_extension	lumbar_bending	lumbar_rotation
      0.60416667	     -0.42911230	     -5.45281335	      5.28128684	      0.05403061	      1.02027818	      0.33047918	     19.41946483	      6.33170319	     -9.69112775	      4.28517536	     13.10446969	     10.44013543	      5.61078973	    -16.93667325	     -6.29913616	    -11.78741101	    -13.86758646	     -0.24565796	     -0.77315752	     17.35965830	      0.00000000	     -0.00933528	      0.00000000	      0.00000000	      0.00000000	      0.00000000	      0.00000000	      0.00000000	      0.00000000	     13.56339319	    -19.37579255	      1.71737321	    -10.20341035
      0.60833333	     -0.41387405	     -5.48172410	      5.51142478	      0.06039651	      1.01936171	      0.33049020	     19.45605632	      6.32665728	     -9.43027801	      4.00788431	     12.97184074	     10.49037190	      5.64330955	    -17.11320845	     -6.46970574	    -11.69524436	    -14.06986412	     -0.03596081	     -0.77323636	     17.40749066	      0.00000000	     -0.00934673	      0.00000000	      0.00000000	      0.00000000	      0.00000000	      0.00000000	      0.00000000	      0.00000000	     13.57701679	    -19.29118335	      1.74958321	    -10.20534217
      0.61250000	     -0.36372813	     -5.53768879	      5.69411707	      0.06669649	      1.01848692	      0.33056640	     19.52478636	      6.36372082	     -9.10058191	      3.54991538	     12.69630926	     10.54449529	      5.68628246	    -17.32222374	     -6.65822543	    -11.53667943	    -14.30026384	      0.14706772	     -0.76230741	     17.45281095	      0.00000000	     -0.00938000	      0.00000000	      0.00000000	      0.00000000	      0.00000000	      0.00000000	      0.00000000	      0.00000000	     13.62646980	    -19.20814485	      1.87005938	    -10.21453270
      0.61666667	     -0.33334281	     -5.65130773	      5.66642005	      0.07266171	      1.01750808	      0.33084819	     19.85718927	      6.48553699	     -8.80628200	      2.68464492	     11.93114799	     10.47940696	      5.86883824	    -17.48549568	     -6.82279849	    -11.43252298	    -14.66812793	      0.23687111	     -0.73026352	     17.18619277	      0.00000000	     -0.00959240	      0.00000000	      0.00000000	      0.00000000	      0.00000000	      0.00000000	      0.00000000	      0.00000000	     13.69403919	    -19.29522407	      2.29800071	    -10.23688954
      0.62083333	     -0.66621001	     -5.81651820	      5.92958354	      0.07864724	      1.01591588	      0.33093555	     20.42335802	      6.55177700	     -8.60658780	      2.16811158	     10.58005320	      9.71775830	     11.26616938	    -16.73096588	     -7.23824125	    -11.31513677	    -16.35423662	     -0.38356682	     -1.01863437	     17.35831921	      0.00000000	     -0.00964307	      0.00000000	      0.00000000	      0.00000000	      0.00000000	      0.00000000	      0.00000000	      0.00000000	     13.68120342	    -18.87962405	      2.55274741	    -10.29422061
      0.62500000	     -0.58687004	     -5.93322821	      6.00030658	      0.08486078	      1.01517655	      0.33111694	     20.59205028	      6.67089966	     -8.34297503	      1.39751530	     10.02461212	      9.69334752	     11.28019173	    -16.93954604	     -7.44179723	    -11.19903247	    -16.62739953	     -0.14316281	     -0.99356081	     17.21443154	      0.00000000	     -0.00986309	      0.00000000	      0.00000000	      0.00000000	      0.00000000	      0.00000000	      0.00000000	      0.00000000	     13.66847369	    -18.91533104	      2.80613579	    -10.26895906
